<svg id="Layer_1" data-name="Layer 1" xmlns="http://www.w3.org/2000/svg" viewBox="0 0 65.37 72"><defs><style>.cls-1{fill:#fff;}.cls-2{fill:#9d4823;}</style></defs><rect class="cls-1" x="18.46" y="11.28" width="28.46" height="49.43" rx="3.1"/><path class="cls-2" d="M43.81,11.78a2.6,2.6,0,0,1,2.6,2.6V57.62a2.6,2.6,0,0,1-2.6,2.6H21.56a2.6,2.6,0,0,1-2.6-2.6V14.38a2.6,2.6,0,0,1,2.6-2.6H43.81m0-1H21.56a3.6,3.6,0,0,0-3.6,3.6V57.62a3.6,3.6,0,0,0,3.6,3.6H43.81a3.6,3.6,0,0,0,3.6-3.6V14.38a3.6,3.6,0,0,0-3.6-3.6Z"/><rect class="cls-1" x="20.78" y="13.75" width="23.81" height="39.98"/><path class="cls-2" d="M44.09,14.25v39H21.28v-39H44.09m1-1H20.28v41H45.09v-41Z"/><circle class="cls-1" cx="32.68" cy="57.22" r="1.75"/><path class="cls-2" d="M32.68,56a1.25,1.25,0,1,1-1.24,1.25A1.25,1.25,0,0,1,32.68,56m0-1a2.25,2.25,0,1,0,2.25,2.25A2.24,2.24,0,0,0,32.68,55Z"/></svg>