<svg id="Layer_1" data-name="Layer 1" xmlns="http://www.w3.org/2000/svg" viewBox="0 0 400 100"><defs><style>.cls-1{fill:#fff;}</style></defs><path class="cls-1" d="M29,49.16a18.34,18.34,0,0,1-9.75-2.72,19.6,19.6,0,0,1-7-7.41A21.15,21.15,0,0,1,9.58,28.6a21,21,0,0,1,2.69-10.5,20,20,0,0,1,7.13-7.44A18.1,18.1,0,0,1,28.91,8a20.09,20.09,0,0,1,5.19.68,17,17,0,0,1,4.47,1.89,8.06,8.06,0,0,1,2.87,2.81l-1.66-.19,3-5.12h.43V22.73h-.49a31,31,0,0,0-3.21-7.41,16.13,16.13,0,0,0-4.63-5,10.5,10.5,0,0,0-6-1.79,10.34,10.34,0,0,0-6.48,2.13A13.59,13.59,0,0,0,18,17.27,35.22,35.22,0,0,0,16.5,28.6a32.67,32.67,0,0,0,1.64,11.2,14.28,14.28,0,0,0,4.44,6.64A10.28,10.28,0,0,0,29,48.6a9.62,9.62,0,0,0,4.54-1,7.08,7.08,0,0,0,3-3,9.69,9.69,0,0,0,1-4.66V33a1,1,0,0,0-.44-.92,3.51,3.51,0,0,0-1.6-.44c-.78-.08-2.2-.18-4.26-.31v-.49H48.24v.49c-1.4.13-2.36.23-2.88.31a1.78,1.78,0,0,0-1,.44A1.35,1.35,0,0,0,44,33V49.16h-.5l-3.82-8.09,3.33-.56a19.75,19.75,0,0,1-3.4,4.63,13.13,13.13,0,0,1-4.6,3A16.56,16.56,0,0,1,29,49.16Z"/><path class="cls-1" d="M56.76,48.48H51.32V48c1.53-.09,2.58-.17,3.15-.25a2.1,2.1,0,0,0,1.17-.43,1.35,1.35,0,0,0,.31-1V10.82a1.34,1.34,0,0,0-.31-1,2,2,0,0,0-1.17-.43c-.57-.09-1.62-.17-3.15-.25v-.5H62.38V46.32a1.22,1.22,0,0,0,.37,1,2.71,2.71,0,0,0,1.35.43c.66.08,1.86.16,3.58.25v.49H56.76ZM89.05,45.7a7.56,7.56,0,0,1-1.48,1.82,6.38,6.38,0,0,1-2,1.21,7,7,0,0,1-2.44.43,7.22,7.22,0,0,1-3.61-.83,7.48,7.48,0,0,1-2.62-2.91,30.12,30.12,0,0,1-2.35-5.83c-.13-.46-.24-.87-.34-1.24s-.22-.74-.34-1.11q-1.17-3.7-2-5.52a6.23,6.23,0,0,0-2.28-2.85,7.6,7.6,0,0,0-4.23-1H61.88v-.68h6.67a15.44,15.44,0,0,0,5.68-.87,5.78,5.78,0,0,0,3.15-2.81,11.38,11.38,0,0,0,1-5.15,12,12,0,0,0-1-5.28,5.93,5.93,0,0,0-3.06-2.9A13.51,13.51,0,0,0,69,9.27h-7.1V8.65h7.78a25.77,25.77,0,0,1,8.46,1.24,12.1,12.1,0,0,1,5.34,3.36,7.36,7.36,0,0,1,1.82,4.91,7.77,7.77,0,0,1-1.67,5,11,11,0,0,1-5.12,3.37A25.45,25.45,0,0,1,70,27.73l-5.12-.06v-.12h.68a21.45,21.45,0,0,1,7.53,1.11,10,10,0,0,1,4.66,3.55A24.2,24.2,0,0,1,80.9,39a49.76,49.76,0,0,0,1.85,5.13,7.18,7.18,0,0,0,1.51,2.4,2.48,2.48,0,0,0,1.7.62,2.88,2.88,0,0,0,2.78-1.79Z"/><path class="cls-1" d="M97,48.42H91.58v-.5q2.28-.12,3.15-.24a2.16,2.16,0,0,0,1.17-.44,1.31,1.31,0,0,0,.31-1V10.75a1.31,1.31,0,0,0-.31-1,2.16,2.16,0,0,0-1.17-.44q-.87-.12-3.15-.24v-.5l5.43,0h5.62V48.42ZM121.89,20.2q-2.1-4.93-3.33-7.19a7.23,7.23,0,0,0-2.62-3,7.91,7.91,0,0,0-3.68-.74H101.33V8.59H122l.43,11.61ZM115.35,28l-14-.24v-.75l14-.24ZM101.58,48.42v-.68h12.1a7.32,7.32,0,0,0,3.8-.87,8,8,0,0,0,2.72-3.3A69.31,69.31,0,0,0,123.32,36h.61l-.37,12.41Z"/><path class="cls-1" d="M135.11,48.42h-5.44v-.5q2.29-.12,3.15-.24a2.16,2.16,0,0,0,1.18-.44,1.35,1.35,0,0,0,.31-1V10.75a1.35,1.35,0,0,0-.31-1,2.16,2.16,0,0,0-1.18-.44q-.85-.12-3.15-.24v-.5l5.44,0h5.62V48.42ZM160,20.2q-2.1-4.93-3.33-7.19A7.25,7.25,0,0,0,154,10a7.84,7.84,0,0,0-3.67-.74H139.43V8.59h20.68l.44,11.61ZM153.45,28l-14-.24v-.75l14-.24ZM139.68,48.42v-.68h12.1a7.35,7.35,0,0,0,3.8-.87,8,8,0,0,0,2.71-3.3A65.47,65.47,0,0,0,161.41,36H162l-.37,12.41Z"/><path class="cls-1" d="M174.56,13.9c-.95-1.23-1.7-2.14-2.25-2.71a6.36,6.36,0,0,0-1.88-1.36,8.51,8.51,0,0,0-2.66-.68v-.5h10.74L202,40.7v7.78h-1.79ZM168.2,48.05a9.44,9.44,0,0,0,3.86-1.73,5.62,5.62,0,0,0,1.82-3,21.14,21.14,0,0,0,.5-5.19v-29h.74v29a19.67,19.67,0,0,0,.52,5.09,6.14,6.14,0,0,0,1.86,3.06,8.41,8.41,0,0,0,3.73,1.73v.43h-13Zm33-29.08a21.22,21.22,0,0,0-.49-5.16,5.91,5.91,0,0,0-1.79-3,8.37,8.37,0,0,0-3.77-1.7V8.65h13v.44a9.19,9.19,0,0,0-3.77,1.73,5.9,5.9,0,0,0-1.82,3A20,20,0,0,0,202,19v27.1h-.81Z"/><path class="cls-1" d="M212,48.05a9.57,9.57,0,0,0,3.86-1.73,5.68,5.68,0,0,0,1.82-3,21.22,21.22,0,0,0,.49-5.19v-29h.68v29a19.61,19.61,0,0,0,.53,5.09,6.13,6.13,0,0,0,1.85,3.06,8.45,8.45,0,0,0,3.8,1.73v.43H212Zm6.79-35.57a6.89,6.89,0,0,0-1-1.29,6.21,6.21,0,0,0-2-1.33,8.64,8.64,0,0,0-3-.71v-.5h10.81L238,41.38h-.43L250.69,8.65h1.61v.68h-1.11L235.44,49H235Zm32.72,36h-5.37V48c1.53-.09,2.59-.17,3.18-.25a2.22,2.22,0,0,0,1.21-.43,1.4,1.4,0,0,0,.3-1V8.65h10.93v.5c-1.56.08-2.63.16-3.21.25a2.09,2.09,0,0,0-1.17.43,1.34,1.34,0,0,0-.31,1v35.5a1.35,1.35,0,0,0,.31,1,2.16,2.16,0,0,0,1.17.43c.58.08,1.65.16,3.21.25v.49H251.49Z"/><path class="cls-1" d="M286.32,49.16a18.7,18.7,0,0,1-9.67-2.69,20.07,20.07,0,0,1-7.25-7.41,20.61,20.61,0,0,1-2.72-10.46A20.87,20.87,0,0,1,269.4,18a19.91,19.91,0,0,1,7.22-7.38,18.64,18.64,0,0,1,19.24,0,20.64,20.64,0,0,1,10,17.88,20.63,20.63,0,0,1-2.75,10.58,20.21,20.21,0,0,1-7.22,7.38A18.54,18.54,0,0,1,286.32,49.16Zm0-.56A10.77,10.77,0,0,0,293,46.5,13.64,13.64,0,0,0,297.34,40a34.8,34.8,0,0,0,1.57-11.42,35.16,35.16,0,0,0-1.54-11.36A13.26,13.26,0,0,0,293,10.63a11.9,11.9,0,0,0-13.5,0,13.35,13.35,0,0,0-4.35,6.55A35.39,35.39,0,0,0,273.6,28.6,35.2,35.2,0,0,0,275.14,40a13.12,13.12,0,0,0,4.42,6.54A11.12,11.12,0,0,0,286.32,48.6Z"/><path class="cls-1" d="M317,13.9a33.17,33.17,0,0,0-2.25-2.71,6.36,6.36,0,0,0-1.88-1.36,8.51,8.51,0,0,0-2.66-.68v-.5H321L344.42,40.7v7.78h-1.79Zm-6.36,34.15a9.44,9.44,0,0,0,3.86-1.73,5.62,5.62,0,0,0,1.82-3,21.14,21.14,0,0,0,.5-5.19v-29h.74v29a19.67,19.67,0,0,0,.52,5.09,6.14,6.14,0,0,0,1.86,3.06,8.41,8.41,0,0,0,3.73,1.73v.43h-13Zm33-29.08a21.22,21.22,0,0,0-.49-5.16,5.84,5.84,0,0,0-1.79-3,8.32,8.32,0,0,0-3.77-1.7V8.65h13v.44a9.19,9.19,0,0,0-3.77,1.73,5.9,5.9,0,0,0-1.82,3,20,20,0,0,0-.52,5.19v27.1h-.81Z"/><path class="cls-1" d="M355.35,22.36l.37-13.71H390l.38,13.71h-.5a.24.24,0,0,1-.06-.18.25.25,0,0,0-.06-.19q-2.16-6.1-3.27-8.58a10,10,0,0,0-2.07-3.3,4.06,4.06,0,0,0-2.75-.84H364.05a4.33,4.33,0,0,0-2.72.81,7.65,7.65,0,0,0-2,3.11c-.66,1.55-1.67,4.19-3,7.94a3.52,3.52,0,0,0-.18.61,3.41,3.41,0,0,1-.19.62Zm15.18,26.12h-6.42V48c1.81-.09,3.07-.17,3.77-.25a2.92,2.92,0,0,0,1.42-.43,1.22,1.22,0,0,0,.37-1V8.65H376V46.32a1.22,1.22,0,0,0,.37,1,2.92,2.92,0,0,0,1.42.43c.7.08,2,.16,3.83.25v.49H370.53Z"/><path class="cls-1" d="M12.56,68.47H15V91.7H12.56Zm14,23.23a13,13,0,0,1-1.11-2.11c-.29-.68-.64-1.6-1.05-2.75A18.41,18.41,0,0,0,23,83.52a5.16,5.16,0,0,0-2-1.89,7.44,7.44,0,0,0-3.62-.73H14.75l-.21-1.77h4.79a10.5,10.5,0,0,0,5.26-1.06A3.42,3.42,0,0,0,26.39,75a3.8,3.8,0,0,0-.76-2.39A4.78,4.78,0,0,0,23.4,71a10.48,10.48,0,0,0-3.57-.54H14.54v-2h5.62a13.21,13.21,0,0,1,4.75.77,6.54,6.54,0,0,1,3,2.16,5.37,5.37,0,0,1,1,3.23,4.41,4.41,0,0,1-2.07,3.87,12,12,0,0,1-5.53,1.71v.11a6.08,6.08,0,0,1,4.34,3.28,27.53,27.53,0,0,1,1.24,3,28.61,28.61,0,0,0,1,2.79,12.53,12.53,0,0,0,1.3,2.29Z"/><path class="cls-1" d="M49.84,68.47h2.44V91.7H49.84Zm1.54,0H63.59v2.16H51.38Zm0,21.07H64.21V91.7H51.38Zm0-11.1H62.05v2.13H51.42Z"/><path class="cls-1" d="M84.77,68.47h2.74l10.7,16.21,2.27,3.6h.14V68.47h2.27V91.7H100l-10.55-16-2.3-3.68H87V91.7H84.77Z"/><path class="cls-1" d="M130.94,68.47H134l8.11,23.23h-2.71l-5.58-16.6-1.37-4.22h-.14L131,75.1l-5.59,16.6H122.8Zm-3.63,14.41h10.26V85H127.31Z"/><path class="cls-1" d="M162.06,68.47h2.45V91.7h-2.45Z"/><path class="cls-1" d="M193.47,92a9.47,9.47,0,0,1-5.73-1.59A7,7,0,0,1,185,86l2.3-.5a5.48,5.48,0,0,0,2.22,3.33,6.91,6.91,0,0,0,3.94,1.09,7.42,7.42,0,0,0,2.88-.5A4.27,4.27,0,0,0,198.24,88a4,4,0,0,0-.12-4.59,4.86,4.86,0,0,0-2-1.41,31.72,31.72,0,0,0-3.21-1,25.6,25.6,0,0,1-3.78-1.13A5.88,5.88,0,0,1,186.7,78a5.71,5.71,0,0,1-1-3.55,5.64,5.64,0,0,1,.9-3.1A6.57,6.57,0,0,1,189.22,69a8.82,8.82,0,0,1,4.07-.89,9.2,9.2,0,0,1,4,.78,6.39,6.39,0,0,1,2.54,2,7.16,7.16,0,0,1,1.19,2.9l-2.31.4a5.4,5.4,0,0,0-.92-2.09A4.5,4.5,0,0,0,196,70.7a6.41,6.41,0,0,0-2.74-.54,6.32,6.32,0,0,0-2.68.54,4.34,4.34,0,0,0-1.82,1.48,3.52,3.52,0,0,0-.65,2.09,3.25,3.25,0,0,0,.79,2.32,5.43,5.43,0,0,0,2,1.32,27.06,27.06,0,0,0,3.16,1,33.93,33.93,0,0,1,3.81,1.2A6,6,0,0,1,200.3,82a5.55,5.55,0,0,1,1,3.53,6.21,6.21,0,0,1-1,3.54,6.09,6.09,0,0,1-2.75,2.22A10.6,10.6,0,0,1,193.47,92Z"/><path class="cls-1" d="M228.77,92A9.45,9.45,0,0,1,223,90.44,7,7,0,0,1,220.3,86l2.31-.5a5.47,5.47,0,0,0,2.21,3.33,7,7,0,0,0,4,1.09,7.49,7.49,0,0,0,2.88-.5A4.27,4.27,0,0,0,233.54,88a4,4,0,0,0-.12-4.59,4.83,4.83,0,0,0-2-1.41,31.4,31.4,0,0,0-3.2-1,25.6,25.6,0,0,1-3.78-1.13A5.88,5.88,0,0,1,222,78a6.26,6.26,0,0,1-.11-6.65A6.57,6.57,0,0,1,224.52,69a8.82,8.82,0,0,1,4.07-.89,9.2,9.2,0,0,1,4,.78,6.39,6.39,0,0,1,2.54,2,7.31,7.31,0,0,1,1.19,2.9l-2.31.4a5.55,5.55,0,0,0-.92-2.09,4.47,4.47,0,0,0-1.82-1.48,7.07,7.07,0,0,0-5.42,0A4.4,4.4,0,0,0,224,72.18a3.58,3.58,0,0,0-.64,2.09,3.25,3.25,0,0,0,.79,2.32,5.43,5.43,0,0,0,2,1.32,27.43,27.43,0,0,0,3.15,1,34.19,34.19,0,0,1,3.82,1.2,6,6,0,0,1,2.5,1.9,5.49,5.49,0,0,1,1,3.53,6.21,6.21,0,0,1-1,3.54,6.06,6.06,0,0,1-2.76,2.22A10.55,10.55,0,0,1,228.77,92Z"/><path class="cls-1" d="M263.16,68.47h3.1l8.11,23.23h-2.7l-5.59-16.6-1.37-4.22h-.14l-1.33,4.22-5.59,16.6H255Zm-3.63,14.41h10.26V85H259.53Z"/><path class="cls-1" d="M294.28,68.47H297l10.7,16.21,2.27,3.6h.14V68.47h2.27V91.7h-2.85L299,75.75l-2.3-3.68h-.15V91.7h-2.27Z"/><path class="cls-1" d="M343.88,92a9.83,9.83,0,0,1-9.15-5.66,14,14,0,0,1-1.33-6.27,13.67,13.67,0,0,1,1.37-6.28,9.94,9.94,0,0,1,9.14-5.68,9.39,9.39,0,0,1,5.28,1.46,7.89,7.89,0,0,1,3.15,4.2l-2.27.68a6.19,6.19,0,0,0-2.3-3.06,6.73,6.73,0,0,0-3.82-1,7.38,7.38,0,0,0-4.16,1.2A8.17,8.17,0,0,0,336.93,75a12.89,12.89,0,0,0,0,10.19,8.12,8.12,0,0,0,2.84,3.4,7.77,7.77,0,0,0,8,.22,7.28,7.28,0,0,0,2.67-3.15l2.09.79a9.55,9.55,0,0,1-2.13,3.15,8.29,8.29,0,0,1-2.93,1.84A10.3,10.3,0,0,1,343.88,92Z"/><path class="cls-1" d="M373,68.47h2.44V91.7H373Zm1.54,0H386.7v2.16H374.49Zm0,21.07h12.83V91.7H374.49Zm0-11.1h10.63v2.13H374.53Z"/></svg>